<svg width="740" height="680" viewBox="0 0 740 680" fill="none" xmlns="http://www.w3.org/2000/svg">
<g clip-path="url(#clip0_2_5)">
<g opacity="0.504511">
<path opacity="0.504511" fill-rule="evenodd" clip-rule="evenodd" d="M685.16 490.795C694.35 559.536 471.485 604.372 279.659 573.082C87.8342 541.791 -0.166065 419.598 91.3697 354.489C182.905 289.38 675.97 422.055 685.16 490.795Z" fill="#F2F2F2"/>
</g>
<path fill-rule="evenodd" clip-rule="evenodd" d="M409.465 204.353C412.933 201.702 418.312 203.391 421.803 204.956C423.148 205.559 426.586 207.489 429.135 209.661C428.798 208.156 428.498 206.637 428.235 205.106C427.157 198.811 426.414 192.396 426.057 186.019C425.964 184.355 426.085 182.497 426.208 180.614V180.611C426.249 179.974 426.291 179.334 426.325 178.698C426.185 178.548 426.091 178.34 426.051 178.059C426.037 178.176 426.028 178.269 426.022 178.341C426.011 178.457 426.006 178.515 425.988 178.519C425.969 178.524 425.937 178.475 425.872 178.376C425.847 178.338 425.818 178.292 425.782 178.239C423.202 174.38 421.035 170.03 420.738 165.249C420.486 161.195 423.816 153.523 428.537 158.834C430.649 161.206 430.1 177.864 426.928 178.884C427.775 184.404 428.841 189.915 430.176 195.355C430.376 195.32 430.58 195.317 430.781 195.344C430.762 193.992 430.76 192.516 430.815 192.008C431.291 187.636 434.941 178.76 440.753 180.483C445.218 181.808 442.481 187.26 440.961 189.646C438.515 193.488 435.748 195.151 432.243 197.149C432.173 197.975 431.641 198.455 431.013 198.611C433.359 207.397 436.442 215.966 440.477 224.061L440.584 223.546C441.097 221.089 441.694 218.225 442.072 217.623C444.05 214.474 448.427 210.628 452.464 212.491C460.942 216.41 451.74 227.672 444.522 228.897C444.222 229.312 443.904 229.646 443.566 229.837C444.969 232.28 446.468 234.673 448.072 237.004C450.477 240.51 453.062 244.004 455.772 247.479C455.856 244.761 456.928 238.704 457.232 238.053C459.083 234.101 464.418 230.034 468.745 232.842C473.613 236.008 469.199 241.989 466.423 244.696C465.285 245.806 459.657 249.874 457.672 249.892C464.219 258.085 471.446 266.137 478.794 273.899C478.185 270.424 477.39 260.856 477.479 259.794C477.935 254.312 481.535 245.544 488.629 247.681C495.51 249.75 492.466 258.858 490.11 263.2C488.683 265.828 486.711 268.498 484.331 270.331C483.903 270.661 483.342 270.931 482.783 271.2C482.109 271.524 481.436 271.848 480.997 272.277C480.605 272.659 480.484 273.098 480.365 273.533C480.239 273.992 480.114 274.447 479.672 274.828C483.643 279.004 487.642 283.093 491.583 287.069C493.443 288.945 495.337 290.785 497.249 292.602C498.295 292.168 499.787 292.739 499.709 294.222C499.698 294.437 499.648 294.623 499.581 294.793C501.03 296.142 502.488 297.482 503.958 298.807C503.925 298.421 503.934 297.876 504.002 297.125C502.944 298.631 502.988 296.437 503.022 294.764C503.034 294.173 503.044 293.648 503.004 293.373C502.849 292.298 502.648 291.234 502.447 290.171C502.018 287.901 501.59 285.639 501.611 283.296C501.657 278.323 504.804 269.987 511.427 272.949C517.516 275.666 515.301 283.036 513.004 287.657C511.549 290.581 509.559 293.192 507.48 295.691C507.109 296.137 506.697 296.741 506.29 297.34C505.685 298.228 505.089 299.102 504.648 299.428C510.302 304.5 516.089 309.423 521.876 314.346L521.879 314.349C524.47 316.553 527.062 318.758 529.641 320.976C529.754 320.489 529.847 320.006 529.926 319.555C529.765 319.737 529.545 319.822 529.264 319.805C529.189 319.432 529.08 318.936 528.949 318.34C527.356 311.068 522.502 288.917 535.645 293.21C545.274 296.364 538.477 315.652 531.295 322.399C535.654 326.166 539.97 329.982 544.186 333.911C547.237 336.754 550.198 339.694 553.045 342.733C551.572 338.798 550.183 333.705 551.095 329.652C552.422 323.753 558.639 318.184 564.709 321.54C572.276 325.742 566.455 331.482 560.995 336.864C558.208 339.612 555.515 342.267 554.747 344.576C563.8 354.543 571.529 365.616 576.693 378.229C582.31 391.946 587.524 410.377 584.64 425.723C585.172 418.975 582.895 410.503 581.296 404.552C581.078 403.742 580.873 402.979 580.689 402.273C578.287 393.044 574.873 384.065 570.375 375.661C563.169 362.2 553.651 350.774 542.663 340.4C540.161 341.273 537.443 342.889 535.192 344.227C533.812 345.048 532.607 345.765 531.735 346.141C527.531 347.957 519.458 350.56 516.78 344.84C514.146 339.216 520.869 336.07 525.035 334.809C529.061 333.593 532.69 333.74 536.446 334.737C530.63 329.574 524.672 324.575 518.715 319.577L518.714 319.576C517.618 318.656 516.523 317.737 515.428 316.817C513.914 318.06 512.242 319.857 510.466 321.765C504.83 327.82 498.153 334.994 492.19 329.133C483.19 320.288 500.402 311.298 507.735 312C508.635 312.086 509.506 312.276 510.355 312.534C502.877 306.179 495.515 299.692 488.552 292.749C487.303 292.978 485.313 294.818 482.924 297.03C477.554 302 470.161 308.842 464.592 303.455C460.572 299.566 461.949 293.509 465.834 290.046C469.735 286.568 475.391 286.574 480.198 287.745C482.276 288.249 484.193 289.211 485.98 290.383C486.056 290.387 486.129 290.391 486.202 290.395C479.35 283.491 472.457 276.432 465.818 269.132C465.702 269.169 465.583 269.208 465.464 269.247C465.063 269.739 464.39 269.919 463.775 269.81C463.436 269.927 463.089 270.047 462.735 270.169C457.476 271.986 450.717 274.322 445.475 273.315C441.617 272.573 438.117 269.433 441.383 265.567C444.037 262.423 451.24 262.874 454.753 263.619C456.467 263.983 458.333 265.037 460.205 266.095C460.992 266.539 461.78 266.984 462.558 267.379C462.76 266.971 463.113 266.709 463.514 266.583C456.958 259.247 450.702 251.658 445.028 243.739C443.311 244.005 441.406 244.761 439.441 245.54C434.714 247.415 429.64 249.427 425.999 245.093C420.623 238.695 430.733 234.96 435.539 235.568C437.162 235.773 438.762 236.233 440.307 236.842C436.178 230.322 433.024 223.353 430.809 216.033C430.788 216.044 430.768 216.055 430.748 216.066V216.067C430.717 216.084 430.685 216.102 430.647 216.119C430.68 216.1 430.71 216.082 430.739 216.063C430.761 216.049 430.782 216.035 430.805 216.021C430.584 215.289 430.372 214.554 430.17 213.815C429.795 213.606 429.444 213.452 429.276 213.389C431.46 214.896 422.248 215.634 420.523 215.772C416.709 216.077 411.599 216.191 408.801 213.062C406.451 210.434 406.589 206.552 409.465 204.353ZM585.049 425.745C584.887 427.968 584.486 430.005 583.737 431.684C584.299 429.772 584.73 427.785 585.049 425.745Z" fill="#F2F2F2"/>
<path opacity="0.2" fill-rule="evenodd" clip-rule="evenodd" d="M236.297 62.3297C233.766 60.4142 229.838 61.6378 227.288 62.7705C226.306 63.2074 223.795 64.6041 221.933 66.1756C222.18 65.0868 222.4 63.9886 222.592 62.8814C223.382 58.3289 223.926 53.6902 224.19 49.0786C224.258 47.8758 224.17 46.532 224.081 45.1706V45.1695C224.051 44.7086 224.021 44.2457 223.997 43.7855C224.099 43.6767 224.168 43.5264 224.197 43.3229C224.207 43.4073 224.213 43.475 224.218 43.5267C224.226 43.6105 224.229 43.6525 224.243 43.6559C224.256 43.6594 224.28 43.6238 224.327 43.5524C224.345 43.5247 224.367 43.4916 224.393 43.4533C226.278 40.6614 227.862 37.5157 228.081 34.0585C228.266 31.1264 225.838 25.5801 222.389 29.4222C220.846 31.1381 221.24 43.1832 223.556 43.9203C222.935 47.9119 222.155 51.897 221.179 55.8315C221.033 55.806 220.884 55.8038 220.737 55.8238C220.751 54.8458 220.753 53.7785 220.713 53.4115C220.367 50.2503 217.705 43.8333 213.462 45.0816C210.201 46.041 212.197 49.9822 213.306 51.7071C215.09 54.4842 217.11 55.6861 219.668 57.1295C219.719 57.7264 220.108 58.0733 220.566 58.1859C218.85 64.54 216.596 70.7376 213.647 76.5921L213.569 76.2201C213.195 74.4437 212.76 72.3726 212.484 71.9377C211.042 69.6615 207.847 66.882 204.899 68.2308C198.707 71.0673 205.422 79.2075 210.692 80.0906C210.911 80.3905 211.142 80.6317 211.389 80.7699C210.364 82.5372 209.269 84.2678 208.097 85.9538C206.339 88.4899 204.451 91.0178 202.471 93.531C202.411 91.5659 201.63 87.1865 201.408 86.7161C200.058 83.859 196.165 80.9205 193.004 82.9523C189.448 85.243 192.669 89.5667 194.695 91.5232C195.525 92.3253 199.633 95.2644 201.083 95.2769C196.299 101.204 191.019 107.029 185.651 112.644C186.097 110.131 186.681 103.212 186.617 102.444C186.286 98.4805 183.66 92.1419 178.481 93.6893C173.455 95.1883 175.675 101.773 177.393 104.912C178.434 106.812 179.873 108.742 181.61 110.066C181.923 110.305 182.332 110.499 182.74 110.694C183.232 110.928 183.723 111.162 184.044 111.472C184.33 111.748 184.418 112.065 184.504 112.38C184.596 112.712 184.687 113.041 185.01 113.316C182.109 116.337 179.188 119.296 176.309 122.172C174.95 123.529 173.567 124.861 172.17 126.175C171.406 125.862 170.317 126.275 170.373 127.347C170.381 127.503 170.418 127.637 170.466 127.76C169.408 128.736 168.343 129.705 167.269 130.664C167.294 130.385 167.287 129.991 167.238 129.448C168.01 130.537 167.978 128.95 167.954 127.741C167.946 127.313 167.938 126.933 167.967 126.735C168.081 125.957 168.229 125.188 168.376 124.419C168.69 122.778 169.003 121.141 168.988 119.447C168.956 115.852 166.662 109.825 161.825 111.969C157.378 113.936 158.993 119.265 160.669 122.605C161.729 124.719 163.181 126.606 164.699 128.413C164.969 128.735 165.27 129.172 165.567 129.604C166.008 130.246 166.443 130.878 166.765 131.114C162.635 134.783 158.409 138.345 154.182 141.907H154.181L154.18 141.908C152.286 143.504 150.393 145.099 148.508 146.704C148.427 146.352 148.359 146.003 148.301 145.676C148.419 145.808 148.579 145.87 148.785 145.858C148.84 145.588 148.919 145.229 149.015 144.798C150.181 139.539 153.733 123.519 144.136 126.629C137.104 128.913 142.059 142.858 147.3 147.734C144.117 150.459 140.963 153.22 137.884 156.063C135.655 158.119 133.493 160.247 131.412 162.445C132.49 159.599 133.505 155.916 132.841 152.985C131.875 148.721 127.337 144.696 122.904 147.125C117.377 150.167 121.626 154.314 125.61 158.204C127.644 160.19 129.609 162.109 130.169 163.779C123.556 170.989 117.908 178.999 114.133 188.121C110.027 198.042 106.213 211.371 108.313 222.467C107.927 217.588 109.592 211.46 110.762 207.157C110.922 206.571 111.072 206.019 111.206 205.508C112.964 198.834 115.46 192.34 118.747 186.262C124.013 176.526 130.967 168.26 138.994 160.754C140.82 161.384 142.804 162.552 144.447 163.519C145.454 164.112 146.334 164.63 146.97 164.902C150.039 166.214 155.932 168.093 157.89 163.956C159.815 159.887 154.908 157.615 151.867 156.705C148.928 155.827 146.278 155.935 143.535 156.657C147.784 152.922 152.136 149.304 156.487 145.688C157.288 145.023 158.088 144.358 158.887 143.692C159.993 144.59 161.213 145.889 162.509 147.268C166.622 151.644 171.494 156.829 175.85 152.588C182.424 146.189 169.861 139.695 164.507 140.206C163.849 140.268 163.213 140.406 162.593 140.593C168.056 135.994 173.433 131.301 178.52 126.278C179.432 126.443 180.884 127.773 182.627 129.371H182.628C186.547 132.963 191.942 137.908 196.01 134.01C198.946 131.197 197.944 126.818 195.108 124.315C192.261 121.801 188.132 121.808 184.621 122.657C183.104 123.022 181.704 123.718 180.399 124.566C180.343 124.569 180.29 124.572 180.237 124.575C185.242 119.58 190.277 114.473 195.128 109.192C195.212 109.219 195.299 109.247 195.386 109.275C195.679 109.631 196.17 109.761 196.619 109.682C196.865 109.765 197.116 109.851 197.372 109.939L197.378 109.941C201.217 111.253 206.152 112.94 209.979 112.209C212.796 111.672 215.353 109.4 212.97 106.605C211.033 104.333 205.774 104.662 203.209 105.202C201.957 105.466 200.594 106.229 199.227 106.994C198.652 107.316 198.077 107.638 197.508 107.924C197.361 107.629 197.104 107.439 196.811 107.348C201.6 102.041 206.171 96.5514 210.317 90.823C211.57 91.015 212.961 91.5605 214.395 92.1231C217.846 93.477 221.55 94.93 224.21 91.7953C228.137 87.1664 220.757 84.4696 217.248 84.9109C216.063 85.0597 214.894 85.3933 213.766 85.8337C216.783 81.1177 219.088 76.0773 220.709 70.784C220.724 70.7918 220.739 70.7999 220.753 70.8079C220.776 70.8206 220.799 70.8333 220.827 70.8454C220.802 70.8324 220.781 70.8187 220.76 70.8051C220.744 70.795 220.728 70.785 220.711 70.7752C220.873 70.2457 221.028 69.7137 221.176 69.1798C221.45 69.0284 221.706 68.9169 221.829 68.871C220.234 69.9618 226.96 70.4918 228.219 70.591C231.004 70.81 234.734 70.8905 236.779 68.6272C238.495 66.7261 238.396 63.9187 236.297 62.3297ZM107.896 222.029C108.019 223.511 108.384 224.863 109.104 225.971C108.576 224.705 108.18 223.386 107.896 222.029Z" fill="#C1DEE2"/>
<g opacity="0.7">
<path opacity="0.7" fill-rule="evenodd" clip-rule="evenodd" d="M509.822 323.77C523.474 323.062 540.359 331.031 541.815 345.871C542.873 356.653 542.546 367.405 544.183 378.172C545.492 386.776 548.261 395.036 552.038 402.874C555.67 410.411 563.203 416.827 565.162 424.879C566.411 430.01 565.712 437.227 563.99 442.245C561.896 448.347 563.009 447.865 567.182 452.985C575.359 463.018 582.723 473.307 587.93 485.29C595.43 502.55 600.348 522.725 597.564 541.618C597.21 544.017 596.79 552.627 593.486 553.229C589.796 553.902 591.522 548.978 591.719 547.387C592.974 537.238 594.09 528.367 592.575 518.059C586.732 478.288 558.201 452.085 539.623 418.331C538.602 416.59 536.446 412.445 534.947 409.711C532.58 405.393 530.201 397.179 526.997 393.977C520.963 387.947 526.511 400.071 527.686 402.385C529.173 405.313 530.808 408.425 532.332 410.99C539.302 422.882 547.082 435.862 554.28 448.121C523.147 455.214 501.221 417.785 492.866 393.178C485.982 372.905 477.746 325.505 509.822 323.77Z" fill="#69A1AC"/>
<path opacity="0.7" fill-rule="evenodd" clip-rule="evenodd" d="M692.805 286.121C669.983 287.932 655.331 302.992 648.511 324.056C644.835 335.407 644.413 347.068 642.37 358.734C639.298 376.284 632.686 389.585 619.764 402.089C615.762 405.961 612.812 409.937 610.716 414.191C606.554 418.438 602.931 423.244 600.269 429.12C596.869 436.624 595.907 445.628 599.832 453.109C600.888 455.121 603.521 459.158 606.25 460.992C596.033 482.752 590.415 506.584 591.048 530.386C591.431 544.753 592.132 559.127 592.951 573.477C593.171 577.33 594.426 583.693 596.31 577.231C598.035 571.32 595.872 562.041 595.672 555.867C594.698 525.786 593.866 498.435 606.248 470.331C607.547 467.385 608.924 464.463 610.357 461.565C610.442 461.516 610.52 461.457 610.599 461.4C610.653 461.442 610.703 461.487 610.758 461.529C610.849 461.365 610.975 461.171 611.121 460.954C611.532 460.529 611.891 459.993 612.233 459.395C613.331 457.873 614.574 456.084 614.581 455.105C614.581 455.098 614.577 455.086 614.577 455.078C622.242 442.565 631.022 430.742 639.99 419.149C639.923 419.234 649.718 405.897 648.204 413.272C647.474 416.827 640.269 423.595 637.359 427.36C630.922 435.735 623.363 446.348 617.082 456.61C616.237 457.096 615.043 459.48 614.179 461.257C613.702 462.157 613.257 463.064 612.82 463.855C635.077 471.208 652.39 456.396 664.196 439.168C664.21 439.147 664.223 439.126 664.236 439.106C667.829 434.346 671.509 429.619 676.107 425.856C683.777 419.576 691.992 418.468 701.036 415.378C725.7 406.951 736.186 374.987 739.516 351.27C743.274 324.513 724.894 283.483 692.805 286.121Z" fill="#89C5CC"/>
<path opacity="0.7" fill-rule="evenodd" clip-rule="evenodd" d="M647.723 211.191C624.299 235.569 612.982 269.383 604.022 301.172C594.014 336.676 587.403 372.728 587.149 409.642C586.983 433.895 586.323 458.299 587.739 482.523C588.241 491.126 589.099 499.745 590.462 508.255C590.575 508.955 593.626 527.958 596.545 523.53C598.205 521.012 593.417 503.817 593.056 500.953C591.021 484.822 590.548 468.573 590.647 452.326C590.81 425.575 590.022 398.962 592.733 372.31C593.137 368.33 593.457 364.151 594.402 360.258C595.406 356.119 594.127 357.926 597.396 356.287C600.573 354.695 604.498 354.922 607.794 352.924C620.866 344.997 627.553 324.635 632.758 311.275C638.711 295.998 642.329 279.706 645.219 263.628C647.341 251.816 648.858 240.075 649.716 228.11C649.987 224.339 650.003 220.396 650.744 216.688C650.944 215.688 651.945 213.919 651.909 213.033C651.832 211.158 650.701 210.056 650.608 208.481C649.627 209.363 648.665 210.267 647.723 211.191Z" fill="#89C5CC"/>
<path opacity="0.7" fill-rule="evenodd" clip-rule="evenodd" d="M520 536C520 576.317 552.683 609 593 609C633.317 609 666 576.317 666 536" fill="#89C5CC"/>
<path opacity="0.7" fill-rule="evenodd" clip-rule="evenodd" d="M643.028 472.085C661.095 470.753 681.271 485.329 689.986 500.497C697.012 512.726 695.828 528.785 691.489 541.778C688.583 550.476 682.241 562.878 671.665 562.999C658.433 563.15 657.795 546.796 657.539 537.236C657.199 524.525 655.593 513.453 645.577 504.789C644.341 503.72 643.043 502.719 641.746 501.718C640.594 500.829 639.443 499.941 638.334 499.005C638.157 498.855 637.978 498.706 637.8 498.556C634.258 495.579 630.539 492.453 630.086 487.546C629.43 480.436 633.443 479.156 639.571 480.477C639.769 480.52 640.306 480.723 641.036 481C644.166 482.186 650.844 484.718 649.581 481.692C649.105 480.552 647.368 479.648 645.175 478.971C639.501 478.354 632.733 477.638 630.787 478.066C609.792 482.672 601.617 511.755 599.446 530.233C599.212 532.227 599.023 534.228 598.857 536.232H595C595.268 531.393 595.621 526.562 596.43 521.776C599.525 503.473 609.2 476.591 630.42 473.62C631.203 473.51 634.083 473.491 637.571 473.696C639.224 472.772 641.076 472.213 643.028 472.085Z" fill="#69A1AC"/>
</g>
<g opacity="0.5">
<path opacity="0.5" fill-rule="evenodd" clip-rule="evenodd" d="M200.223 190.445C204.425 184.453 212.224 169.235 218.138 167.094C221.948 165.715 220.837 179.98 220.884 182.7C221.067 193.224 220.043 203.681 218.778 214.116C216.498 232.937 209.045 249.697 198.822 265.715C193.562 273.957 187.391 282.3 178.845 287.442C174.912 289.811 170.179 290.207 166.294 292.248C161.769 294.623 164.233 292.703 162.194 297.417C159.363 303.963 158.457 312.408 157.147 319.392C151.132 351.455 136.568 520.945 139.093 553.558C139.317 556.449 135.287 557.14 135.085 553.611C134.016 534.9 143.27 405.322 147.94 362.947C152.609 320.571 157.334 283.134 162.071 268.474C167.819 250.687 178.199 229.298 186.84 212.711C190.854 205.006 195.229 197.565 200.223 190.445Z" fill="#69A1AC"/>
<path opacity="0.5" fill-rule="evenodd" clip-rule="evenodd" d="M231.414 398.278C242.349 390.25 254.186 405.401 244.29 413.43C238.82 417.868 233.101 416.29 229.882 412.591C227.792 415.139 225.836 417.803 223.956 420.052C218.229 426.909 212.817 433.928 207.644 441.111C196.898 456.035 187.689 471.801 178.06 487.278C168.558 502.554 159.132 517.908 150.519 533.571C143.223 546.841 133.498 562.452 131 577C134.79 546.146 149.172 516.49 166.298 489.291C183.285 462.314 202.779 432.853 229.081 411.564C226.404 407.627 226.33 402.008 231.414 398.278Z" fill="#C1DEE2"/>
<path opacity="0.5" fill-rule="evenodd" clip-rule="evenodd" d="M23.9132 323.031C30.0324 324.227 40.0312 338.07 45.0753 343.344C51.0699 349.612 56.5084 356.292 61.6349 363.292C72.6711 378.358 82.5411 394.376 90.9339 411.08C104.616 438.311 115.578 466.265 123.533 495.918C128.403 514.069 131.556 532.883 133.424 551.565C133.777 555.089 137.471 582.253 132.148 582.985C127.361 583.644 128.84 562.359 128.609 559.463C125.998 526.798 118.177 495.015 107.299 464.226C104.929 457.519 102.728 449.304 98.9381 443.268C96.2092 438.921 98.9186 440.437 94.1228 438.792C90.0049 437.378 85.3131 437.724 81.0963 435.993C71.9356 432.237 64.6006 424.944 58.1709 417.608C45.6758 403.351 35.774 387.928 30.6126 369.66C27.7495 359.532 25.1184 349.344 23.6583 338.902C23.2806 336.203 19.9718 322.26 23.9132 323.031Z" fill="#69A1AC"/>
<path opacity="0.5" fill-rule="evenodd" clip-rule="evenodd" d="M48.0614 92.716C71.1113 132.69 90.0528 176.601 102.283 221.076C109.694 248.023 114.876 275.675 120.025 303.126C127.997 345.632 135.538 388.134 137.683 431.395C139.841 474.906 144.108 525.092 129.861 567C136.978 524.452 130.202 479.162 129.002 436.35C128.429 415.912 126.768 395.674 124.588 375.355C122.473 355.645 119.018 336.029 115.801 316.474C114.234 306.95 112.588 297.441 110.912 287.937C110.411 285.101 110.2 276.687 108.401 274.75C106.591 272.8 97.3543 272.005 94.4544 270.574C88.6149 267.693 83.1221 263.6 78.2609 259.275C68.9418 250.984 60.8347 240.151 54.4359 229.472C39.6307 204.764 33.7116 174.61 34.0108 145.994C34.0682 140.438 43.0034 80.61 39.4149 79.7861C39.631 79.533 39.8353 79.2718 40.028 79C42.7448 83.5488 45.4108 88.1284 48.0614 92.716Z" fill="#89C5CC"/>
<path opacity="0.5" fill-rule="evenodd" clip-rule="evenodd" d="M296.846 236.887C297.202 236.374 299.517 232.807 298.351 233.035C300.724 232.57 295.087 236.969 301 234.27C298.192 236.922 299.813 240.366 299.85 243.935C299.911 249.73 298.942 255.476 297.851 261.146C296.126 270.109 293.557 278.823 289.828 287.159C281.701 305.326 267.901 322.814 251.518 334.172C243.43 339.779 235.504 341.689 226.28 344.27C220.453 345.901 219.991 348.915 216.898 354.569C210.46 366.345 204.136 378.078 198.457 390.251C191.677 404.788 185.095 419.34 178.886 434.132C157.969 483.957 140.945 535.578 132.005 589C131.786 557.519 139.069 525.095 148.255 495.088C154.947 473.226 163.658 452.151 172.95 431.29C175.201 426.236 178.613 419.735 179.57 414.155C180.239 410.245 178.192 406.486 177.255 402.367C173.601 386.33 173.863 368.363 177.071 352.24C180.609 334.461 190.839 326.209 208.145 323.691C214.474 322.769 222.519 323.107 228.322 320.408C234.645 317.47 237.253 307.81 240.849 301.61C250.506 284.953 261.98 268.979 275.155 254.945C278.803 251.059 282.726 247.473 286.888 244.15C289.513 242.053 295.058 239.47 296.846 236.887Z" fill="#89C5CC"/>
<path opacity="0.5" fill-rule="evenodd" clip-rule="evenodd" d="M97.845 560.729C97.3997 557.71 99.7396 555 102.791 555H164.209C167.26 555 169.6 557.71 169.155 560.729L164.408 592.918C162.961 602.73 154.541 610 144.622 610H122.378C112.459 610 104.039 602.73 102.592 592.918L97.845 560.729Z" fill="#C1DEE2"/>
</g>
<path fill-rule="evenodd" clip-rule="evenodd" d="M47.4177 571.456C47.4177 592.743 49.0976 610 71.6456 610C94.1935 610 95.8734 592.743 95.8734 571.456" fill="#F2F2F2"/>
<path fill-rule="evenodd" clip-rule="evenodd" d="M78.3534 558.174C77.5269 559.603 76.79 561.061 76.139 562.54C76.116 559.493 76.2845 556.424 76.7446 553.313C77.531 547.983 78.7322 542.682 79.8609 537.388C80.6721 533.584 80.6208 526.752 83.6994 523.72C84.5436 523.065 84.7468 524.351 84.7468 524.908C84.7575 525.026 84.7445 522.632 83.9251 523.049C79.0544 525.564 77.4763 533.474 75.9169 537.434C73.6418 543.215 71.7061 549.124 70.909 555.138C70.7076 556.657 70.598 558.176 70.5727 559.692C70.4071 559.287 70.2516 558.878 70.0796 558.474C67.2684 551.881 63.4747 545.447 58.7431 539.514C57.5784 538.054 42.9342 523.649 41.7878 525.854C41.9009 526.174 42.1377 526.44 42.4988 526.651C42.52 526.675 42.5206 526.662 42.5083 526.626C43.3683 528.016 45.8137 530.161 46.5754 531.379C48.4923 534.442 49.9821 537.693 51.4961 540.882C54.6948 547.622 57.6621 554.429 60.5386 561.25C61.2084 562.839 61.9065 564.419 62.6187 565.994C55.2769 555.405 45.4826 545.791 32 540.287C36.6049 542.63 39.624 547.037 42.7339 550.412C46.4846 554.483 50.4351 558.444 54.1929 562.51C58.6253 567.307 63.8405 572.358 68.1038 577.666C72.2333 586.336 76.2462 595.015 78.7234 604.128C77.7084 600.98 78.6438 596.628 78.4701 593.324C78.3322 590.693 78.0247 588.084 77.6035 585.48C78.1243 586.655 78.5732 587.83 78.7764 588.924C78.5908 587.09 78.377 585.268 78.1472 583.455C78.7369 581.758 79.316 580.175 79.7072 578.87C81.7118 572.179 84.0988 565.602 87.3495 559.193C90.3574 553.264 93.8077 547.41 97.5673 541.735C99.321 539.089 101.099 536.453 102.866 533.812C104.022 532.083 105.123 529.316 106.733 527.659C96.3261 537.174 84.956 546.757 78.3534 558.174Z" fill="#F2F2F2"/>
<path fill-rule="evenodd" clip-rule="evenodd" d="M709.633 123.827C706.65 113.876 699.646 106.087 692.375 98.9511C678.22 85.0582 670.607 76.4684 665.562 56.1457C662.595 44.1934 659.575 31.5277 650.165 22.8562C643.313 16.5414 631.521 11.2359 622.358 15.7577C608.261 24.1717 604.475 41.4386 605.897 56.9001C607.659 76.0635 616.61 87.8797 633.807 94.938C643.497 98.9133 649.938 104.159 655.198 113.299C659.405 120.607 661.858 129.759 667.145 136.384C675.05 146.289 684.941 150.691 697.134 149.046C685.714 128.035 672.371 106.826 656.278 89.1352C654.771 87.3567 645.886 80.5492 647.678 77.5181C649.652 74.1807 658.774 86.7176 658.709 86.6418C663.386 92.0103 667.714 97.7152 671.963 103.475C671.953 103.48 671.94 103.484 671.928 103.489C676.304 109.4 680.644 115.397 684.902 121.469C686.624 124.038 688.3 126.639 689.905 129.306C692.259 133.219 695.996 144.325 699.849 146.731C700.673 147.245 701.436 147.533 702.148 147.651C704.777 151.956 707.335 156.295 709.768 160.685C716.121 172.151 721.574 184.257 724.076 197.202C724.807 200.981 724.29 215.114 726.869 217.842C731.585 222.831 730.203 213.223 729.921 210.323C727.579 186.31 718.958 165.852 706.441 145.664C710.286 140.642 710.842 127.859 709.633 123.827Z" fill="#F2F2F2"/>
<path fill-rule="evenodd" clip-rule="evenodd" d="M548.131 135.43C553.102 129.573 565.052 128.579 572.361 128.971C581.404 129.456 590.694 131.658 599.298 134.32C613.471 138.704 627.244 146.706 639.727 154.451C641.231 155.384 659.764 166.529 658.124 168.485C656.498 170.423 638.305 157.184 634.25 154.902C625.597 150.032 617.662 144.272 608.124 141.055C598.249 137.724 587.805 136.405 577.42 136.496C576.087 136.508 571.74 135.579 571.646 137.551C571.554 139.479 578.748 138.473 580.016 138.485C585.255 138.533 590.527 139.026 595.691 139.934C605.368 141.635 614.465 145.061 622.753 150.317C620.44 155.694 614.897 158.173 609.081 156.827C604.055 155.664 599.156 152.795 594.234 151.966C590.845 151.395 587.451 151.735 584.164 152.69C575.494 155.209 570.494 160.371 560.961 156.78C553.489 153.966 540.991 143.853 548.131 135.43Z" fill="#F2F2F2"/>
<path fill-rule="evenodd" clip-rule="evenodd" d="M526.752 41.0513C515.714 40.2462 503.388 49.0557 498.063 58.2232C493.771 65.6147 494.494 75.3207 497.145 83.1734C498.92 88.4307 502.795 95.9263 509.257 95.9994C517.341 96.0908 517.73 86.2066 517.887 80.4283C518.094 72.7462 519.076 66.054 525.195 60.8177C525.95 60.1715 526.743 59.5664 527.536 58.9614C528.239 58.4243 528.943 57.8873 529.62 57.3217C529.728 57.2313 529.837 57.1408 529.946 57.0501C532.11 55.251 534.382 53.3615 534.659 50.3961C535.06 46.0986 532.608 45.3252 528.864 46.1236C528.743 46.1493 528.415 46.2724 527.969 46.4397C526.057 47.1566 521.977 48.6865 522.749 46.8577C523.039 46.1686 524.101 45.6225 525.44 45.2134C528.907 44.8405 533.042 44.4078 534.231 44.6663C547.058 47.4502 552.052 65.0278 553.378 76.1957C553.529 77.4603 553.649 78.7292 553.753 80H556.105C555.94 77.0154 555.725 74.0357 555.221 71.0845C553.331 60.0223 547.419 43.7749 534.455 41.9794C533.977 41.9125 532.217 41.9012 530.086 42.0249C529.076 41.4665 527.945 41.1289 526.752 41.0513Z" fill="#F2F2F2"/>
<path fill-rule="evenodd" clip-rule="evenodd" d="M204 658C246.526 658 281 625.093 281 584.5C281 543.907 246.526 511 204 511C161.474 511 127 543.907 127 584.5C127 625.093 161.474 658 204 658Z" fill="#C5CFD6"/>
<path fill-rule="evenodd" clip-rule="evenodd" d="M323.711 580.58C327.43 593.608 336.696 618.302 349.509 646.66L361.685 643.107C351.033 577.853 342.168 534.651 337.09 521.502C333.735 512.814 308.353 513.832 311.273 531.313C312.498 538.643 317.343 558.273 323.711 580.58ZM273.667 534.361C253.812 538.475 212.644 553.017 200.888 557.664C193.5 560.584 198.263 570.488 204.566 569.622C205.633 569.475 209.41 569.052 215.044 568.422C233.142 566.397 270.412 562.228 298.679 558.16C313.563 556.017 305.556 528.138 290.102 531.088C284.903 532.081 279.373 533.179 273.667 534.361Z" fill="#E4C4A6"/>
<path fill-rule="evenodd" clip-rule="evenodd" d="M337.869 514.138C335.839 507.514 243.562 484 243.562 484H236V491.047L299.587 523.416C299.503 524.461 299.554 525.565 299.759 526.729C299.3 550.726 309.571 568.653 319.739 586.402C326.389 598.008 332.994 609.539 336.528 622.641L359.889 619.156C359.209 617.416 358.133 609.568 356.661 598.839C352.952 571.785 346.729 526.409 338 514.403C337.97 514.361 337.939 514.32 337.907 514.278C337.896 514.231 337.883 514.185 337.869 514.138Z" fill="#1F28CF"/>
<path fill-rule="evenodd" clip-rule="evenodd" d="M241.283 542.64C235.465 541.476 230.107 540.436 225.523 539.632C195.909 534.438 187.274 518.586 192.38 484H246.942C255.855 486.56 302.174 505.985 326.207 516.316C342.113 523.154 337.099 547.804 328.091 554.219C328.042 554.613 327.88 554.88 327.591 555C293.44 569.154 264.318 568.098 245.617 567.42C237.784 567.136 231.78 566.918 228 567.912L222.077 549.228L241.283 542.64Z" fill="#2B44FF"/>
<path fill-rule="evenodd" clip-rule="evenodd" d="M207.127 556.695C207.081 555.525 206.094 554.589 204.93 554.713C202.806 554.939 199.672 555.38 198.147 556.124C195.716 557.31 191.447 560.395 191.447 560.395C192.822 563.215 216.171 611.088 216.171 611.088C216.171 611.088 223.668 609.878 222.112 605.367C220.557 600.855 219.603 597.835 219.603 597.835L218.615 569.15C218.596 568.587 218.115 568.151 217.553 568.186L213.14 568.463C213.14 568.463 209.379 565.419 208.177 562.955C207.446 561.455 207.204 558.655 207.127 556.695Z" fill="#E4E4E4"/>
<path fill-rule="evenodd" clip-rule="evenodd" d="M346.45 640.284C345.378 639.813 344.104 640.29 343.705 641.391C342.977 643.398 342 646.409 342 648.106C342 650.811 342.901 656 342.901 656C346.039 656 399.303 656 399.303 656C399.303 656 401.502 648.732 396.765 648.152C392.028 647.573 388.895 647.106 388.895 647.106L362.68 635.419C362.165 635.189 361.563 635.43 361.348 635.951L359.663 640.039C359.663 640.039 355.278 642.085 352.537 642.085C350.868 642.085 348.246 641.074 346.45 640.284Z" fill="#E4E4E4"/>
<path fill-rule="evenodd" clip-rule="evenodd" d="M216.935 367.244C223.411 371.147 229.774 373.033 232.76 372.263C240.25 370.333 240.938 342.935 235.143 332.134C229.349 321.333 199.558 316.625 198.057 338.025C197.536 345.453 200.654 352.081 205.262 357.49L197 396H221L216.935 367.244Z" fill="#E4C4A6"/>
<path fill-rule="evenodd" clip-rule="evenodd" d="M187.593 330.902C186.818 330.134 186.395 329.037 186.03 327.996C185.65 326.914 185.281 325.822 185.028 324.696C184.525 322.447 184.52 319.86 186.124 318.114C187.411 316.713 189.342 316.085 191.124 315.948C192.311 315.857 193.531 316.024 194.669 316.398C195.798 316.769 196.771 317.509 197.866 317.968C197.908 315.544 198.323 313.008 199.553 310.938C200.736 308.947 202.622 307.829 204.771 307.534C206.976 307.23 209.154 307.746 211.128 308.814C211.622 309.081 212.112 309.361 212.581 309.678C212.973 309.944 213.381 310.264 213.841 310.372C214.355 310.492 214.609 310.196 214.942 309.821C215.334 309.382 215.774 308.996 216.24 308.653C218.302 307.137 221.007 306.514 223.396 307.423C224.496 307.841 225.567 308.552 226.313 309.531C226.979 310.404 227.454 311.789 228.372 312.398C228.762 312.656 229.037 312.314 229.392 312.061C229.925 311.681 230.434 311.262 230.973 310.892C231.731 310.373 232.552 309.985 233.43 309.781C234.717 309.484 236.494 309.553 236.862 311.238C237 311.871 236.894 312.548 236.85 313.186C236.789 314.061 236.725 314.936 236.649 315.811C236.591 316.474 236.518 317.115 236.393 317.767C236.326 318.115 236.117 318.763 236.266 319.111C236.452 319.546 237.311 319.298 237.679 319.313C238.404 319.343 239.132 319.47 239.803 319.78C240.322 320.021 240.869 320.374 241.088 320.969C241.223 321.335 241.187 321.711 241.124 322.088C241.047 322.539 241.135 322.779 241.192 323.235C242.166 322.755 245.541 321.69 245.965 323.435C246.107 324.016 245.785 324.673 245.539 325.163C245.108 326.023 244.543 326.809 243.966 327.558C242.761 329.121 241.323 330.47 239.776 331.623C241.589 332.429 242.062 334.806 240.493 336.222C239.8 336.848 238.868 336.987 237.994 336.947C237.674 336.932 237.213 336.809 236.961 336.865C236.825 336.895 236.68 337.01 236.493 337.022C235.259 337.107 233.866 336.81 232.66 336.536C230.512 336.048 228.477 335.03 226.816 333.48C226.39 333.082 226.038 332.853 225.464 332.859C224.962 332.864 224.468 333.002 223.966 333.015C222.638 333.048 221.44 332.399 220.206 331.967C220.13 333.633 219.655 335.469 218.974 336.969C218.418 338.191 217.257 338.369 216.116 338.476C212.467 338.82 208.806 338.437 205.152 338.442C208.689 339.241 212.343 339.571 215.848 340.511C217.432 340.936 216.222 342.004 215.545 342.744C214.43 343.963 213.6 345.474 213.025 347.065C211.295 344.81 208.237 343.324 205.528 344.017C202.535 344.782 200.427 348.83 202.341 351.74C203.453 353.429 205.459 354.081 207.129 354.807C205.827 356.161 205.511 358.161 204.727 359.846C204.341 360.677 203.798 361.617 202.933 361.906C202.613 362.013 202.238 362.022 201.986 362.283C201.673 362.606 201.599 362.967 201.199 363.245C199.606 364.352 197.117 364.267 195.705 362.821C194.428 361.514 194.76 359.445 195.827 358.12C194.129 357.412 191.036 356.502 191.711 353.857C188.032 353.613 179.1 347.646 184.037 343.286C181.327 341.755 178.838 338.012 180.578 334.713C181.919 332.172 185.036 331.036 187.593 330.902" fill="#191847"/>
<path fill-rule="evenodd" clip-rule="evenodd" d="M303.679 484.635L271.781 461.211L264.73 478.642L296.317 491.741C305.251 502.235 310.246 506.61 311.304 504.865C312.195 503.394 311.498 502.017 310.856 500.749C310.356 499.76 309.89 498.838 310.233 497.989C311.018 496.049 317.019 496.254 322.705 496.691C328.392 497.128 326.735 494.598 325.364 493.349C319.559 489.874 312.331 486.97 303.679 484.635ZM136.398 525.908C139.328 519.963 149.308 462.02 149.308 462.02L170.205 462.102C170.205 462.102 150.851 524.583 149.308 528.406C147.304 533.372 150.708 540.587 153.016 545.48C153.373 546.237 153.704 546.938 153.985 547.567C150.782 549 149.243 547.268 147.621 545.442C145.79 543.379 143.851 541.197 139.288 543.319C137.525 544.14 135.857 545.109 134.227 546.057C128.597 549.329 123.425 552.336 116.389 547.994C115.274 547.306 114.051 544.715 117.005 542.69C124.362 537.645 134.965 528.815 136.398 525.908Z" fill="#E4C4A6"/>
<path fill-rule="evenodd" clip-rule="evenodd" d="M208.695 374.332L217.342 372.849C249.425 400.564 262.603 453.809 301.93 482.015L292.464 493.748C224.24 485.3 207.33 420.355 208.695 374.332Z" fill="#E87613"/>
<path fill-rule="evenodd" clip-rule="evenodd" d="M171 483C171 483 223.008 483 247.511 483C251.008 483 250.349 477.952 249.843 475.404C244.011 446.004 221.241 414.312 221.241 372.461L199.172 369C180.917 398.358 174.605 434.505 171 483Z" fill="#DDE3E9"/>
<path fill-rule="evenodd" clip-rule="evenodd" d="M162.397 504C158.958 512.259 155.586 519.465 152.409 525H136C134.235 467.919 155.845 423.996 173.932 397.513C169.916 397.226 166.291 395.545 164 391.411C155.934 376.856 158.847 368.842 167.467 366.208C172.207 364.76 176.666 365.748 182.002 366.932C186.369 367.9 191.325 368.999 197.504 369C197.506 369 197.508 369 197.51 369C198.109 369 198.654 369.04 199.149 369.117L206.472 369.535C206.472 369.535 236.205 470.305 222.872 504H162.397Z" fill="#FF9B21"/>
<path fill-rule="evenodd" clip-rule="evenodd" d="M162.397 504C166.909 493.164 171.535 480.516 175.987 467.454C177.645 481.839 180.405 496.286 185 504H162.397Z" fill="black" fill-opacity="0.1"/>
<path fill-rule="evenodd" clip-rule="evenodd" d="M532 417L495.745 544.227L469.293 638H450L478.109 417H532Z" fill="#191847"/>
<path fill-rule="evenodd" clip-rule="evenodd" d="M541.696 417C542.534 482.574 545.394 518.34 546.274 524.298C547.155 530.256 560.468 568.156 586.214 638H566.227C533.451 570.997 515.154 533.096 511.338 524.298C507.521 515.5 495.741 479.734 478 417H541.696Z" fill="#2F3676"/>
<path fill-rule="evenodd" clip-rule="evenodd" d="M507.065 299.244C500.589 303.147 494.226 305.033 491.24 304.263C483.75 302.333 483.062 274.935 488.857 264.134C494.651 253.333 524.442 248.625 525.943 270.025C526.464 277.453 523.346 284.081 518.738 289.49L527 328H503L507.065 299.244Z" fill="#B28B67"/>
<path fill-rule="evenodd" clip-rule="evenodd" d="M486 254C486 259.341 490.187 263.704 495.458 263.986C498.474 264.916 502.348 265.599 506.644 265.887C506.227 267.456 506 269.238 506 271.252C506 273.03 506.196 274.916 506.558 276.83C507.489 275.723 508.735 275 510 275C513.538 275 516 277.91 516 281C516 284.922 513.736 287.758 510.431 287.985C513.407 293.698 517.523 298 521.636 298C529.446 298 535 287.557 535 276.33C535 275.935 534.992 275.543 534.977 275.154C537.621 276.969 540.071 279.347 542.539 281.743L542.539 281.743C547.782 286.833 553.105 292 560.539 292C575.413 292 581.32 262 560.539 262C546.407 262 539.455 264.06 533.465 267.107C532.283 263.776 530.481 260.976 528.278 259.02C527.748 258.423 526.935 257.852 525.887 257.323C525.246 256.973 524.583 256.687 523.901 256.472C520.288 255.144 515.055 254.208 509.209 254.004C508.118 253.966 507.046 253.954 506 253.968C505.983 248.46 501.512 244 496 244C490.477 244 486 248.477 486 254Z" fill="#191847"/>
<path fill-rule="evenodd" clip-rule="evenodd" d="M616.636 448.284C612.906 442.804 591.333 384.536 591.333 384.536L573.621 387.108C573.621 387.108 602.139 448.982 604.199 452.554C606.874 457.193 604.508 464.812 602.903 469.978C602.655 470.777 602.425 471.518 602.234 472.179C605.605 473.153 606.888 471.223 608.24 469.189C609.767 466.892 611.383 464.461 616.197 465.928C618.057 466.495 619.844 467.223 621.59 467.934C627.62 470.391 633.16 472.648 639.524 467.37C640.532 466.533 641.382 463.797 638.176 462.203C630.187 458.231 618.459 450.963 616.636 448.284ZM424.454 421.202L454.641 395.61L462.891 412.507L432.294 427.777C424.115 438.868 419.436 443.581 418.26 441.914C417.268 440.509 417.867 439.087 418.419 437.776C418.849 436.756 419.25 435.803 418.848 434.98C417.93 433.1 411.958 433.722 406.316 434.555C400.674 435.388 402.15 432.749 403.431 431.407C408.979 427.536 415.987 424.134 424.454 421.202Z" fill="#B28B67"/>
<path fill-rule="evenodd" clip-rule="evenodd" d="M517.305 312.332L506.33 308.703C491.443 345.893 469.239 381.876 432.143 412.27L441.316 428.097C473.919 408.892 504.781 393.973 517.305 365.155C521.508 355.483 517.648 323.897 517.305 312.332Z" fill="#C5CFD6"/>
<path fill-rule="evenodd" clip-rule="evenodd" d="M555 417C555 417 507.843 422 480.764 417C478.527 416.587 478.174 412.842 479.212 410.301C495.364 370.724 506.44 336.192 506.44 308.703C510.885 310.944 522 309.374 522 309.374C541.914 337.703 551.067 370.206 555 417Z" fill="#323337"/>
<path fill-rule="evenodd" clip-rule="evenodd" d="M527.707 307C527.193 306.654 526.921 306.481 526.921 306.481L526.951 307H518.652C518.235 309.453 517.624 318.543 516.733 331.798C513.496 379.965 506.564 483.127 491.809 522.606H593.615C591.467 477.722 574.918 424.047 557.776 378.47C570.426 391.056 585.199 412.153 597.138 447.273L616.207 442.378C596.774 358.638 539.838 315.452 528.79 307.744C528.683 307.495 528.575 307.247 528.468 307H527.707Z" fill="#DDE3E9"/>
<path fill-rule="evenodd" clip-rule="evenodd" d="M472 653L471.085 638.249C471.045 637.609 470.423 637.171 469.795 637.304C461.128 639.146 449.174 635 449.174 635C437.143 643.522 419.799 647.433 413.692 648.604C412.51 648.831 411.752 650.023 412.08 651.18L413.447 656H449.174H470.015L472 653Z" fill="#191847"/>
<path fill-rule="evenodd" clip-rule="evenodd" d="M588 653L587.085 638.249C587.045 637.609 586.423 637.171 585.795 637.304C577.128 639.146 565.174 635 565.174 635C553.143 643.522 535.799 647.433 529.692 648.604C528.51 648.831 527.752 650.023 528.08 651.18L529.447 656H565.174H586.015L588 653Z" fill="#191847"/>
</g>
<defs>
<clipPath id="clip0_2_5">
<rect width="740" height="680" fill="white"/>
</clipPath>
</defs>
</svg>
